<svg xmlns="http://www.w3.org/2000/svg" viewBox="0 0 40 40" id="dvd">
    <path fill="white" d="M22.08 15.59a20.25 20.25 0 0 0-1.95 2.7 15.09 15.09 0 0 0-.74-2.73s-.19-.54-.77-2.3h-11l-.39 1.66h3.58c1.87 0 3 .77 2.69 2.13s-2 2.12-3.7 2.12h-.69l.83-3.63H7.05l-1.23 5.3h4.11c3.09 0 6-1.66 6.55-3.79a4.14 4.14 0 0 0-.16-2v-.2c0-.01.08 0 .08 0l.06.13 2.61 7.54 6.66-7.68h3.5c1.87 0 3 .77 2.7 2.13s-2 2.12-3.71 2.12h-.67l.85-3.63h-2.89l-1.23 5.3h4.11c3.09 0 6-1.66 6.54-3.79s-1.67-3.79-4.79-3.79H24l-1.93 2.33zm-2.92 7.05c-7.82 0-14.16.92-14.16 2.05s6.34 2 14.16 2 14.18-.91 14.18-2-6.34-2.05-14.18-2.05zm-.5 2.78c-1.8 0-3.24-.31-3.24-.69s1.44-.73 3.24-.73 3.23.31 3.23.69-1.45.73-3.23.73z"></path>
</svg>